<svg width="46" height="67" viewBox="0 0 46 67" fill="none" xmlns="http://www.w3.org/2000/svg">
<rect width="46" height="67" fill="white"/>
<path d="M14 28C16.9572 27.3243 27.7349 27.6962 30.6897 28.3823C33.6444 29.0685 36.4009 30.4171 38.7469 32.3243C41.0929 34.2315 42.9659 36.6465 44.2218 39.3835C45.4776 42.1205 46.0829 45.1064 45.9909 48.1114C45.8989 51.1165 45.1122 54.0606 43.6912 56.7172C42.2702 59.3737 40.253 61.6719 37.7946 63.4348C35.3363 65.1977 32.5024 66.3783 29.5111 66.8858C26.6775 66.9692 16.7033 67 13.5 67L24.0344 53.7845C24.8123 53.7845 26.27 53.5067 27.1716 53.3538C28.0731 53.2008 28.9272 52.845 29.6682 52.3136C30.4091 51.7823 31.0171 51.0897 31.4453 50.289C31.8736 49.4883 32.1107 48.601 32.1385 47.6953C32.1662 46.7896 31.9838 45.8897 31.6053 45.0648C31.2268 44.2399 30.6622 43.512 29.9552 42.9372C29.2481 42.3624 28.4173 41.9559 27.5268 41.7491C26.6363 41.5423 14.8913 41.5455 14 41.7491L14 28Z" fill="url(#paint0_linear_8_24)"/>
<line x1="7" y1="-3.0598e-07" x2="7" y2="67" stroke="url(#paint1_linear_8_24)" stroke-width="14"/>
<circle cx="19.25" cy="46.25" r="1.25" fill="#444444"/>
<circle cx="24.75" cy="46.25" r="1.25" fill="#444444"/>
<path d="M25 49C25 49.394 24.9224 49.7841 24.7716 50.1481C24.6209 50.512 24.3999 50.8427 24.1213 51.1213C23.8427 51.3999 23.512 51.6209 23.1481 51.7716C22.7841 51.9224 22.394 52 22 52C21.606 52 21.2159 51.9224 20.8519 51.7716C20.488 51.6209 20.1573 51.3999 19.8787 51.1213C19.6001 50.8427 19.3791 50.512 19.2284 50.1481C19.0776 49.7841 19 49.394 19 49L20.2214 49C20.2214 49.2336 20.2674 49.4649 20.3568 49.6806C20.4462 49.8964 20.5772 50.0925 20.7423 50.2577C20.9075 50.4228 21.1036 50.5538 21.3194 50.6432C21.5351 50.7326 21.7664 50.7786 22 50.7786C22.2336 50.7786 22.4649 50.7326 22.6806 50.6432C22.8964 50.5538 23.0925 50.4228 23.2577 50.2577C23.4228 50.0925 23.5538 49.8964 23.6432 49.6806C23.7326 49.4649 23.7786 49.2336 23.7786 49H25Z" fill="#444444"/>
<defs>
<linearGradient id="paint0_linear_8_24" x1="30.4621" y1="87.7551" x2="-9.17213" y2="55.5146" gradientUnits="userSpaceOnUse">
<stop stop-color="#DD6D7A"/>
<stop offset="1" stop-color="#739EF9"/>
</linearGradient>
<linearGradient id="paint1_linear_8_24" x1="6.5" y1="62" x2="6.5" y2="17.5" gradientUnits="userSpaceOnUse">
<stop stop-color="#DD6D7A"/>
<stop offset="0.99853" stop-color="#739EF9"/>
</linearGradient>
</defs>
</svg>
